<svg width="78" height="84" viewBox="0 0 78 84" fill="none" xmlns="http://www.w3.org/2000/svg">
<g clip-path="url(#clip0_3_10)">
<path d="M0 84H78V0H0V84Z" fill="#004A99"/>
<path d="M1.73857 82.4207H76.2712V1.57935H1.73857V82.4207Z" fill="white"/>
<path d="M23.6819 47.2001C26.9921 51.7675 32.6694 54.7736 39.1031 54.7736C49.3087 54.7736 57.589 47.209 57.589 37.8857C57.589 36.9794 57.5104 36.082 57.3631 35.2116C56.4987 30.2673 53.2966 26.0408 48.8077 23.5103C45.9887 21.913 42.6589 20.9977 39.1031 20.9977C35.96 20.9977 33.0034 21.7156 30.4103 22.9719C28.2297 24.0397 26.3143 25.4844 24.7624 27.2253C22.6014 29.6481 21.1575 32.6362 20.745 35.9026C20.6664 36.5576 20.6173 37.2127 20.6173 37.8857C20.6173 41.3315 21.7469 44.535 23.6819 47.2001Z" fill="#8F9ACE"/>
<path d="M48.7684 24.0218L45.8708 24.5871L47.8648 25.637L48.5425 24.9191L49.3578 24.4435L48.7684 24.0218ZM48.8077 23.5193C53.2867 26.0498 56.4987 30.2762 57.3631 35.2295L55.9192 36.3602L54.9958 36.1628L54.5637 36.5127L54.5931 36.746C54.6029 36.8537 54.6619 37.0691 54.7503 37.4011C54.9369 38.0741 55.0253 38.7471 55.0253 39.4022C55.0253 40.0124 54.9958 40.2098 54.8485 40.802H54.0627L51.8527 39.1599L50.1632 39.5099L49.0729 39.3394L47.6879 39.7252L48.3166 40.2188L49.3971 39.9406L50.3302 40.6226L50.1828 40.9187L49.7998 41.484L48.9649 42.5698L47.6879 43.512L45.3207 41.2686L44.7117 41.3315L47.2361 43.9786L48.2577 43.7902L48.513 44.2658L47.4817 45.8092L45.4779 47.559L44.5742 49.6498C44.5546 49.7036 44.4564 49.7664 44.3188 49.8293C44.0242 49.9549 43.6902 50.1792 43.3071 50.5112C42.8258 50.924 42.5508 51.1573 42.4919 51.2022C42.0892 51.5252 41.6177 51.8573 41.0578 52.1982C40.5077 52.5392 39.9479 52.8443 39.3978 53.0956C38.4254 53.5443 37.3351 53.7955 36.3528 53.7955C35.7046 53.7955 35.0465 53.6968 34.408 53.4994C34.3196 53.4725 34.2607 53.4366 34.2607 53.4007L34.7027 52.27C34.7223 52.2162 35.0956 51.8303 35.793 51.1394C36.1073 50.8253 36.3627 50.3946 36.5493 49.8831C36.8145 49.1293 37.0011 48.6717 37.1092 48.5102C37.5119 47.9179 37.6985 47.4154 37.5708 47.2898L34.9482 44.8849L33.8481 43.0185L33.966 42.5788C34.0446 42.2737 34.3098 41.7263 34.8206 40.8379C35.0956 40.3534 35.3215 40.1021 35.5769 39.9854L37.3351 39.1958L40.7435 39.6624L41.7847 40.2905L42.2758 40.2367L44.3581 40.7302L44.8787 39.4919L42.2365 38.8099L41.3034 37.9575L41.1757 37.9933L41.6177 38.9984L41.0873 39.0971L41.0283 38.9804L41.215 38.9535C41.2248 38.9625 41.0578 38.3343 40.6453 38.1549C40.4979 38.0921 40.3997 38.0292 40.2524 38.0292C40.0461 38.0292 39.7219 38.1459 39.5451 38.2895C38.9656 38.774 38.5138 39.106 38.4745 39.0791L37.394 38.3254L37.7967 37.4011L37.9637 37.437C38.062 37.4549 38.17 37.4729 38.2682 37.4729C38.612 37.4729 38.8183 37.2934 38.8576 37.114C38.9067 36.8896 38.7397 36.7819 38.7397 36.7819C38.7495 36.773 38.6317 36.6743 38.6317 36.6743C38.6317 36.6832 38.7888 36.5127 38.779 36.5127C38.779 36.5127 39.1915 36.6114 39.4273 36.6204C39.7023 36.6384 39.9773 36.5756 40.0854 36.4679L40.3506 36.091L40.7926 35.9833L40.8712 35.4449L41.1462 35.4628C41.1462 35.4628 41.3034 35.6513 41.3623 35.9115L42.1284 35.7321L42.3347 34.9962L42.2168 34.8706L42.5508 34.1886L42.2561 34.0002L41.765 35.2654L41.4998 35.3013L41.3819 35.0232L40.6944 35.068L40.3113 34.5027L41.1462 33.713L41.9615 32.717L43.1107 33.049L43.3955 33.5695L43.7491 33.5605L43.6215 32.7977L44.5644 31.9901L43.9358 29.3968L44.3385 28.5803L44.7903 28.6072L44.8493 27.9701L41.8436 24.946L41.9418 24.1294L44.4269 23.609L44.7805 23.7077L46.1949 23.5821L46.5191 23.7167L48.8077 23.5193ZM23.6819 47.2001L24.9588 46.2309L26.0098 46.4732L28.819 44.5439L28.9566 43.512L27.1099 41.0533C27.0805 41.0174 26.9626 39.4829 26.609 38.3343C26.4224 37.7331 25.9902 35.9833 25.9705 35.9474L25.725 35.4987L23.9668 33.0939L25.1062 30.4916L26.0098 30.4557L26.0589 30.0698L25.391 29.5584L25.3714 29.4507L25.3517 28.9661C25.3517 28.6341 25.9705 28.3021 26.3733 28.3021C26.4813 28.3021 26.5992 28.32 26.717 28.3469C27.0019 28.4187 27.2769 28.6341 27.5225 28.7956C27.5716 28.8225 28.3279 30.4557 28.3279 30.4557L27.6796 30.9313L27.3653 31.6492L27.8073 31.9632L28.4261 30.9941L30.98 31.7748L32.5516 32.5914L33.023 32.1158L34.3393 32.2145L35.3018 31.021L34.4277 30.7159L35.3411 29.7109L35.2331 29.3699L33.8383 29.1276L34.909 28.1047L35.9305 28.7149L35.9108 28.9841L36.5689 29.0558L37.119 28.0957L36.7359 27.7816L38.3665 26.3459L39.8398 25.7177L40.989 25.0268L41.215 24.8653L41.2641 24.1294L41.0676 23.609L40.5569 23.4295L41.2051 22.9629L41.0283 22.8732C40.5961 23.1424 39.5648 23.7885 37.7673 23.9051C36.4904 23.9859 33.8972 23.4654 33.8972 23.4654L31.3336 23.1155L30.4397 22.9719C28.2592 24.0307 26.3438 25.4844 24.7918 27.2163L24.7133 29.4327L24.3302 30.4467L23.4167 33.381L23.7114 34.2066L22.2478 34.395L20.7745 35.8936C20.6664 36.5576 20.6271 37.2216 20.6271 37.8946C20.6271 41.3315 21.7469 44.535 23.6819 47.2001ZM26.5599 36.3333L26.6385 36.6563L26.9724 36.5576L26.8644 36.2346L26.5599 36.3333ZM40.3702 38.5407L40.1345 38.5138L40.1148 38.9176L40.3506 38.9535L40.4881 38.442L40.4193 38.4151L40.3702 38.5407ZM46.5584 51.265C46.5584 51.274 46.3619 51.0676 46.3619 51.0676C46.3619 51.0766 46.0476 51.2381 46.0476 51.2381C46.0476 51.2381 46.2833 51.4534 46.2735 51.4534L46.5584 51.265ZM46.9906 49.2101L46.411 49.5152L45.6645 49.6588L44.0242 51.1304L44.1224 51.4534L44.3581 51.4265L45.2913 51.0586C45.5368 50.9599 46.303 50.5741 46.6959 50.1792C47.0691 49.8113 47.187 49.6677 47.4031 49.2909L46.9906 49.2101ZM38.3173 35.9205L38.7201 36.0192L38.8379 35.6782L38.5531 35.6154L38.3173 35.9205ZM39.3978 35.1936C39.3978 35.1936 38.9263 36.2435 38.9263 36.2525C38.9263 36.2525 39.663 36.3153 39.663 36.3243L39.8398 35.4628L39.7121 35.3731L39.8005 35.077L39.4273 34.8886L39.3094 35.1129L39.3978 35.1936ZM27.1198 36.1807C27.1296 36.1807 27.3751 36.091 27.3751 36.091L27.2769 35.8936C27.2769 35.8936 27.1296 36.0102 27.1296 36.0192L27.1198 36.1807ZM26.9331 35.5436L27.0314 35.7679L27.3359 35.6423C27.3359 35.6423 27.2573 35.4359 27.2474 35.4359L26.9331 35.5436ZM26.7367 34.8078L26.7956 35.1488H27.1492L27.1001 34.7809L26.7367 34.8078ZM26.3929 34.1617L26.5795 34.4219L26.9331 34.4668L27.0903 33.8207L26.5206 33.7041L26.3929 34.1617ZM26.0884 33.3451L26.6679 33.4079L26.8447 32.1517V31.7748L26.7465 31.3979L26.4518 31.38L26.0884 33.3451ZM38.9558 26.5523L37.286 27.7637L37.8852 28.1585L39.2112 26.9202L38.9558 26.5523ZM37.4824 28.652L37.2467 28.6431L36.7949 29.3968L36.0876 29.4507L35.2724 30.5095L35.7144 30.7608L36.8047 30.1237L37.6396 29.3071L37.4824 28.652ZM37.0797 30.4288L36.2546 31.0928V31.5415L37.5708 31.8376L40.1836 30.2134L40.1148 29.5494L39.0737 29.2174L37.0797 30.4288ZM33.1114 32.3939L34.0937 32.5375L33.7597 33.1298L32.915 32.708L33.1114 32.3939Z" fill="#004A99"/>
<path d="M16.2856 9.88868L15.3525 12.4102H17.15L16.2856 9.88868ZM18.2992 15.7483L17.8179 14.3395H14.6453L14.1345 15.7483H11.4824L15.2444 6.30829H17.1991L20.9513 15.7483H18.2992Z" fill="#E42618"/>
<path d="M28.7208 8.91057C28.4949 8.58753 28.1413 8.38114 27.5028 8.38114H26.3831V13.6844H27.5028C28.1413 13.6844 28.4851 13.4691 28.7208 13.155C28.9271 12.8858 28.9958 12.6345 28.9958 11.0373C28.9958 9.44001 28.9271 9.1708 28.7208 8.91057ZM30.4594 14.824C29.7522 15.4701 28.7503 15.7483 27.6698 15.7483H23.8391V6.30829H27.6698C28.7405 6.30829 29.7423 6.58646 30.4594 7.23255C31.6675 8.33628 31.53 9.53871 31.53 11.0283C31.5399 12.5179 31.6675 13.7203 30.4594 14.824Z" fill="#E42618"/>
<path d="M34.9875 15.7483V6.30829H42.0106V8.37217H37.5217V9.95149H41.3525V12.0154H37.5217V13.6754H42.0008V15.7393H34.9875V15.7483Z" fill="#E42618"/>
<path d="M52.6188 15.7483V11.2257L51.1553 13.5588H49.5247L48.0612 11.2257V15.7483H45.527V6.30829H48.0219L50.34 10.4719L52.6581 6.30829H55.153V15.7483H52.6188Z" fill="#E42618"/>
<path d="M58.9248 15.7483V6.30829H65.9479V8.37217H61.4688V9.95149H65.2996V12.0154H61.4688V13.6754H65.9479V15.7393H58.9248V15.7483Z" fill="#E42618"/>
<path d="M13.4764 62.8228L13.9675 61.4857L14.4292 62.8228H13.4764ZM13.5451 60.0948L11.9048 64.2226H12.9754L13.2014 63.5945H14.7042L14.9203 64.2226H15.9909L14.3408 60.0948H13.5451Z" fill="#E42618"/>
<path d="M18.918 64.2585C19.4877 64.2585 19.8806 64.1239 20.2244 63.8009C20.5584 63.4958 20.6762 63.1189 20.6762 62.4279V61.8895H18.9671V62.6612H19.6547V62.7689C19.6547 62.9663 19.5859 63.1458 19.4583 63.2535C19.3404 63.3701 19.1538 63.433 18.9082 63.433C18.7019 63.433 18.5251 63.3612 18.4171 63.2355C18.309 63.1009 18.2403 62.9574 18.2403 62.1587C18.2403 61.3691 18.309 61.2165 18.4171 61.0909C18.5251 60.9653 18.7117 60.8845 18.9082 60.8845C19.2913 60.8845 19.5074 61.0281 19.6154 61.3601H20.6566C20.5682 60.9294 20.2342 60.059 18.9082 60.059C18.3974 60.059 18.0045 60.2025 17.6607 60.5166C17.2089 60.9294 17.2089 61.4947 17.2089 62.087V62.2305C17.2089 62.8228 17.2089 63.3881 17.6607 63.8009C18.0144 64.1149 18.4073 64.2585 18.918 64.2585Z" fill="#E42618"/>
<path d="M23.456 62.5536H25.1749V61.728H23.456V60.9204H25.4696V60.0948H22.4345V64.2226H25.4696V63.3971H23.456V62.5536Z" fill="#E42618"/>
<path d="M30.7246 64.2226V60.0948H29.6932V62.3472L28.1216 60.0948H27.2082V64.2226H28.2395V61.9793L29.8013 64.2226H30.7246Z" fill="#E42618"/>
<path d="M34.8107 62.9753C34.742 63.1817 34.5946 63.424 34.1821 63.424C33.9758 63.424 33.799 63.3522 33.691 63.2266C33.5829 63.092 33.5043 62.9394 33.5043 62.1498C33.5043 61.3601 33.5829 61.2076 33.691 61.073C33.799 60.9473 33.9758 60.8755 34.1821 60.8755C34.6045 60.8755 34.742 61.1178 34.8107 61.3242H35.8617C35.6849 60.5076 35.0759 60.041 34.1723 60.041C33.6615 60.041 33.2686 60.1846 32.9248 60.4987C32.473 60.9114 32.473 61.4768 32.473 62.069V62.2126C32.473 62.8048 32.473 63.3701 32.9248 63.7829C33.2686 64.097 33.6615 64.2406 34.1723 64.2406C35.0759 64.2406 35.6947 63.7739 35.8617 62.9663H34.8107V62.9753Z" fill="#E42618"/>
<path d="M38.4549 62.5536H40.1738V61.728H38.4549V60.9204H40.4586V60.0948H37.4235V64.2226H40.4586V63.3971H38.4549V62.5536Z" fill="#E42618"/>
<path d="M47.3638 63.1368C47.2361 63.3163 47.0495 63.3971 46.7745 63.3971H46.2244V60.9204H46.7745C47.0495 60.9204 47.2361 61.0012 47.3638 61.1806C47.462 61.3152 47.4915 61.4588 47.4915 62.1587C47.4915 62.8945 47.462 63.0112 47.3638 63.1368ZM48.5229 62.3382C48.5229 62.2754 48.5229 62.2215 48.5229 62.1587C48.5229 62.0959 48.5229 62.0421 48.5229 61.9793C48.5229 61.396 48.5327 60.9294 48.0612 60.4986C47.7764 60.2384 47.354 60.0948 46.853 60.0948H45.1832V64.2226H46.8432C47.3442 64.2226 47.7665 64.079 48.0514 63.8188C48.5327 63.3881 48.5229 62.9215 48.5229 62.3382Z" fill="#E42618"/>
<path d="M51.2928 62.5536H53.0117V61.728H51.2928V60.9204H53.2966V60.0948H50.2614V64.2226H53.2966V63.3971H51.2928V62.5536Z" fill="#E42618"/>
<path d="M59.0525 60.0948H58.0211V64.2226H60.9973V63.3971H59.0525V60.0948Z" fill="#E42618"/>
<path d="M63.5807 62.8228L64.0718 61.4857L64.5334 62.8228H63.5807ZM65.0147 64.2226H66.0854L64.4352 60.0948H63.6298L61.9894 64.2226H63.0601L63.286 63.5945H64.7888L65.0147 64.2226Z" fill="#E42618"/>
<path d="M13.2112 70.9527H14.2425V67.6505H15.3819V66.825H12.0718V67.6505H13.2112V70.9527Z" fill="#E42618"/>
<path d="M19.7922 68.6107H19.0948V67.6595H19.7922C20.1458 67.6595 20.3423 67.9018 20.3423 68.1351C20.3423 68.3684 20.1556 68.6107 19.7922 68.6107ZM20.6566 69.1939C20.8236 69.1132 21.3835 68.8081 21.3835 68.1351C21.3835 67.48 20.8629 66.825 19.8511 66.825H18.0733V70.9527H19.1046V69.3824H19.5761L20.4012 70.9527H21.5995L20.6075 69.2208L20.6566 69.1939Z" fill="#E42618"/>
<path d="M25.3714 69.5529L25.8625 68.2158L26.3241 69.5529H25.3714ZM25.4303 66.825L23.7801 70.9527H24.8606L25.0865 70.3246H26.5893L26.8054 70.9527H27.8761L26.2259 66.825H25.4303Z" fill="#E42618"/>
<path d="M30.3906 66.825V70.9527H31.422V68.7004L32.9936 70.9527H33.9071V66.825H32.8757V69.0683L31.3041 66.825H30.3906Z" fill="#E42618"/>
<path d="M38.6611 68.485L38.1012 68.4132C37.9539 68.3952 37.836 68.3504 37.7476 68.2786C37.6494 68.1888 37.6396 68.0901 37.6396 68.0453C37.6396 67.8299 37.836 67.6056 38.2584 67.6056H38.2977C38.504 67.6056 38.8576 67.6056 39.1424 67.8389L39.7809 67.2556C39.4174 66.9415 38.9558 66.798 38.2977 66.798C37.3154 66.798 36.6573 67.3184 36.6573 68.0901C36.6573 68.4401 36.7556 68.7183 36.9618 68.9067C37.1583 69.0952 37.4628 69.2118 37.8655 69.2657L38.4254 69.3374C38.5727 69.3554 38.6906 69.4003 38.7593 69.4631C38.8281 69.5349 38.8674 69.6336 38.8674 69.7502C38.8674 69.9476 38.7397 70.1809 38.1504 70.1809C37.9441 70.1809 37.4333 70.154 37.119 69.9028L36.4609 70.495C36.8636 70.8539 37.3646 71.0065 38.1405 71.0065C39.0049 71.0065 39.8791 70.6117 39.8791 69.7233C39.8791 69.3195 39.7711 69.0323 39.555 68.8349C39.3487 68.6465 39.054 68.5298 38.6611 68.485Z" fill="#E42618"/>
<path d="M43.6706 66.825H42.6392V70.9527H43.6706V66.825Z" fill="#E42618"/>
<path d="M47.5013 70.9527H48.5327V67.6505H49.6721V66.825H46.3619V67.6505H47.5013V70.9527Z" fill="#E42618"/>
<path d="M52.3634 70.9527H53.3948V66.825H52.3634V70.9527Z" fill="#E42618"/>
<path d="M58.4141 69.9567C58.3256 70.0554 58.1488 70.1631 57.9131 70.1631C57.6774 70.1631 57.5006 70.0554 57.4122 69.9567C57.3041 69.8221 57.2354 69.6875 57.2354 68.8888C57.2354 68.0902 57.3041 67.9466 57.4122 67.821C57.5202 67.6954 57.7068 67.6146 57.9131 67.6146C58.1194 67.6146 58.306 67.6954 58.4141 67.821C58.5221 67.9556 58.5909 68.0992 58.5909 68.8888C58.5909 69.6785 58.5221 69.8221 58.4141 69.9567ZM59.6222 68.8171C59.6222 68.2248 59.6222 67.6595 59.1704 67.2467C58.8168 66.9326 58.4337 66.7891 57.9131 66.7891C57.3925 66.7891 57.0094 66.9326 56.6558 67.2557C56.204 67.6685 56.204 68.2338 56.204 68.826V68.9696C56.204 69.5618 56.204 70.1272 56.6558 70.5399C57.0094 70.854 57.3925 70.9976 57.9131 70.9976C58.4337 70.9976 58.8168 70.854 59.1704 70.5399C59.6222 70.1272 59.6222 69.5618 59.6222 68.9696V68.8171Z" fill="#E42618"/>
<path d="M65.9479 70.9527V66.825H64.9165V69.0683L63.3449 66.825H62.4314V70.9527H63.4628V68.7094L65.0344 70.9527H65.9479Z" fill="#E42618"/>
<path d="M13.1031 76.0227H14.8221V75.1882H13.1031V74.3805H15.1167V73.546H12.062V77.6917H15.1167V76.8572H13.1031V76.0227Z" fill="#E42618"/>
<path d="M13.5451 72.0654L13.2505 73.0346H13.8005L14.4979 72.0654H13.5451Z" fill="#E42618"/>
<path d="M20.0378 74.8022H21.0986C20.9218 73.9857 20.3128 73.519 19.3993 73.519C18.8886 73.519 18.4957 73.6626 18.1519 73.9767C17.6804 74.3984 17.6804 74.9548 17.6902 75.556V75.6996C17.6902 76.2918 17.6902 76.8571 18.142 77.2699C18.4858 77.584 18.8886 77.7365 19.3895 77.7365C20.303 77.7365 20.912 77.2699 21.0888 76.4533H20.0378C19.969 76.6597 19.8217 76.902 19.3993 76.902C19.193 76.902 19.0162 76.8302 18.9082 76.7046C18.8002 76.57 18.7216 76.4174 18.7216 75.6278C18.7216 74.8381 18.8002 74.6766 18.9082 74.551C19.0162 74.4254 19.193 74.3536 19.3993 74.3536C19.8217 74.3446 19.969 74.5959 20.0378 74.8022Z" fill="#E42618"/>
<path d="M25.666 76.6956C25.558 76.8302 25.3714 76.902 25.1651 76.902C24.9588 76.902 24.7722 76.8213 24.6641 76.6956C24.5561 76.561 24.4873 76.4174 24.4873 75.6278C24.4873 74.8292 24.5561 74.6856 24.6641 74.551C24.7722 74.4254 24.9588 74.3446 25.1651 74.3446C25.3714 74.3446 25.558 74.4164 25.666 74.551C25.7741 74.6856 25.8428 74.8292 25.8428 75.6278C25.8527 76.4174 25.7839 76.561 25.666 76.6956ZM25.1651 73.519C24.6445 73.519 24.2516 73.6626 23.9078 73.9857C23.456 74.3984 23.456 74.9638 23.456 75.565V75.7086C23.456 76.3098 23.456 76.8661 23.9078 77.2879C24.2614 77.6109 24.6445 77.7545 25.1651 77.7545C25.6857 77.7545 26.0786 77.6109 26.4224 77.2879C26.8742 76.8751 26.8742 76.3098 26.8742 75.7175V75.556C26.8742 74.9638 26.8742 74.3984 26.4224 73.9857C26.0786 73.6626 25.6857 73.519 25.1651 73.519Z" fill="#E42618"/>
<path d="M30.6067 73.5549H29.5754V77.7006H32.5614V76.8661H30.6067V73.5549Z" fill="#E42618"/>
<path d="M37.0208 76.6956C36.9127 76.8302 36.7261 76.902 36.5198 76.902C36.2841 76.902 36.1073 76.7943 36.0189 76.6956C35.9108 76.561 35.8421 76.4174 35.8421 75.6278C35.8421 74.8292 35.9108 74.6856 36.0189 74.551C36.1269 74.4254 36.3136 74.3446 36.5198 74.3446C36.7261 74.3446 36.9127 74.4164 37.0208 74.551C37.1288 74.6856 37.1976 74.8292 37.1976 75.6278C37.2074 76.4174 37.1386 76.561 37.0208 76.6956ZM36.5198 73.519C35.9992 73.519 35.6063 73.6626 35.2626 73.9857C34.8107 74.3984 34.8107 74.9638 34.8107 75.565V75.7086C34.8107 76.3098 34.8107 76.8661 35.2626 77.2879C35.6063 77.6109 35.9992 77.7545 36.5198 77.7545C37.0404 77.7545 37.4333 77.6109 37.7771 77.2879C38.2289 76.8751 38.2289 76.3098 38.2289 75.7086V75.556C38.2289 74.9548 38.2289 74.3984 37.7771 73.9767C37.4333 73.6626 37.0404 73.519 36.5198 73.519Z" fill="#E42618"/>
<path d="M43.1991 74.8292H44.2403C44.1519 74.3895 43.8179 73.519 42.4919 73.519C41.9713 73.519 41.5882 73.6626 41.2346 73.9767C40.7828 74.3895 40.7828 74.9548 40.7828 75.556V75.6996C40.7828 76.3008 40.7828 76.8572 41.2346 77.2789C41.5784 77.593 41.9811 77.7455 42.4919 77.7455C43.0714 77.7455 43.4643 77.6109 43.8081 77.2789C44.142 76.9738 44.2599 76.5969 44.2599 75.897V75.3586H42.5508V76.1303H43.2384V76.238C43.2384 76.4444 43.1696 76.6149 43.0518 76.7225C42.9241 76.8392 42.7473 76.902 42.5017 76.902C42.2954 76.902 42.1088 76.8302 42.0106 76.7046C41.9025 76.57 41.8338 76.4264 41.8338 75.6278C41.8338 74.8292 41.9025 74.6856 42.0106 74.551C42.1186 74.4164 42.2954 74.3446 42.5017 74.3446C42.875 74.3446 43.091 74.4882 43.1991 74.8292Z" fill="#E42618"/>
<path d="M46.9414 77.7006H47.9728V73.5549H46.9414V77.7006Z" fill="#E42618"/>
<path d="M53.0412 76.2559L53.0314 76.3636L52.7662 76.1213L52.2652 76.579L52.5893 76.8751L52.4911 76.893C52.4518 76.902 52.4224 76.902 52.3929 76.902C52.1572 76.902 51.9804 76.7943 51.892 76.6956C51.7839 76.561 51.7152 76.4174 51.7152 75.6278C51.7152 74.8292 51.7839 74.6856 51.892 74.56C52 74.4343 52.1866 74.3536 52.3929 74.3536C52.5992 74.3536 52.7858 74.4343 52.8938 74.56C53.0019 74.6946 53.0706 74.8381 53.0706 75.6278C53.0706 75.9329 53.051 76.1303 53.0412 76.2559ZM53.8466 77.0456C54.1118 76.6687 54.102 76.1931 54.102 75.6906V75.556C54.102 74.9548 54.102 74.3984 53.6502 73.9767C53.3064 73.6626 52.9135 73.519 52.3929 73.519C51.8723 73.519 51.4794 73.6626 51.1356 73.9767C50.6838 74.3895 50.6838 74.9548 50.6838 75.556V75.6996C50.6838 76.3008 50.6838 76.8572 51.1356 77.2789C51.4892 77.6019 51.8723 77.7455 52.3929 77.7455C52.7367 77.7455 53.0215 77.6827 53.2671 77.5571L53.3064 77.5391L53.66 77.8622L54.1609 77.4045L53.827 77.0994L53.8466 77.0456Z" fill="#E42618"/>
<path d="M57.7461 76.2291V73.546H56.7148V76.247C56.7148 77.0995 57.4318 77.7276 58.414 77.7276C59.4061 77.7276 60.133 77.1085 60.133 76.247V73.546H59.1016V76.2291C59.1016 76.6418 58.8364 76.9021 58.4239 76.9021C58.0015 76.9021 57.7461 76.6418 57.7461 76.2291Z" fill="#E42618"/>
<path d="M63.9244 76.0227H65.6434V75.1882H63.9244V74.3805H65.938V73.546H62.8833V77.6917H65.938V76.8572H63.9244V76.0227Z" fill="#E42618"/>
</g>
<defs>
<clipPath id="clip0_3_10">
<rect width="78" height="84" fill="white"/>
</clipPath>
</defs>
</svg>
